<?xml version="1.0" standalone="no"?><svg xmlns="http://www.w3.org/2000/svg" viewBox="0 0 1440 320"><path fill="#E2F9FB" fill-opacity="1" d="M0,64L20,101.3C40,139,80,213,120,245.3C160,277,200,267,240,240C280,213,320,171,360,149.3C400,128,440,128,480,144C520,160,560,192,600,202.7C640,213,680,203,720,176C760,149,800,107,840,122.7C880,139,920,213,960,245.3C1000,277,1040,267,1080,250.7C1120,235,1160,213,1200,197.3C1240,181,1280,171,1320,181.3C1360,192,1400,224,1420,240L1440,256L1440,0L1420,0C1400,0,1360,0,1320,0C1280,0,1240,0,1200,0C1160,0,1120,0,1080,0C1040,0,1000,0,960,0C920,0,880,0,840,0C800,0,760,0,720,0C680,0,640,0,600,0C560,0,520,0,480,0C440,0,400,0,360,0C320,0,280,0,240,0C200,0,160,0,120,0C80,0,40,0,20,0L0,0Z"></path></svg>